<svg width="178" height="275" viewBox="0 0 178 275" fill="none" xmlns="http://www.w3.org/2000/svg">
<path d="M73.2299 180.19C75.8145 174.888 81.7821 162.239 91.1434 142.244C99.1283 125.17 111.883 99.951 129.397 66.5995C139.568 47.2559 148.761 30.7093 156.998 16.971C161.915 8.71458 166.275 3.67087 170.068 1.82862C172.243 0.772695 174.06 0.70528 175.51 1.63764C176.802 2.3004 177.443 3.63717 177.443 5.61422C177.443 8.54609 175.783 13.9718 172.484 21.8687C171.833 23.4751 168.534 31.3383 162.556 45.4473C151.902 70.812 144.684 88.7177 140.891 99.1871C130.479 127.877 122.852 151.725 118.019 170.732C115.193 182.021 113.785 189.997 113.785 194.658C113.785 195.692 113.869 196.737 114.026 197.781C114.426 200.949 114.636 202.836 114.636 203.443C114.636 205.948 113.743 208.711 111.978 211.722C110.444 214.451 108.71 216.282 106.777 217.226C104.518 218.327 102.658 217.799 101.209 215.653C100 214.081 99.3909 211.362 99.3909 207.476C99.3909 183.066 118.439 125.844 156.525 35.8316C136.594 68.2845 114.52 111.611 90.3133 165.812C84.9866 177.629 80.5844 186.02 77.1173 190.985C73.7237 195.827 70.4982 198.983 67.4303 200.477C64.3624 201.971 62.1036 201.634 60.6537 199.5C59.6871 198.073 59.2038 196.108 59.2038 193.603C59.2038 172.035 71.1916 132.269 95.1568 74.3055C87.0038 87.1451 79.1765 101.265 71.6749 116.632C58.0376 144.906 45.8501 173.034 35.123 201.028C30.0379 214.451 23.8706 232.076 16.6002 253.891C12.9649 264.967 8.77286 271.662 4.01344 273.976C2.8052 274.561 1.79658 274.493 0.987589 273.763C0.346696 273.302 0.0209961 272.505 0.0209961 271.382C0.0209961 269.741 1.51291 264.529 4.49674 255.745C10.8741 236.514 15.7491 222.539 19.1427 213.822C36.4888 169.249 57.0289 125.293 80.7525 81.9329C90.6811 63.8249 97.5313 51.8727 101.335 46.0651C105.285 40.0891 108.553 36.4719 111.137 35.225C112.755 34.4387 114.321 34.4499 115.855 35.2587C117.714 36.1686 118.639 37.7862 118.639 40.1227C118.639 42.7064 116.947 47.8063 113.554 55.4C103.867 77.0127 94.9572 100.322 86.8042 125.327C79.7859 147.715 75.2681 166.002 73.2509 180.179L73.2299 180.19Z" fill="white"/>
</svg>
