<svg width="88" height="120" viewBox="0 0 88 120" fill="none" xmlns="http://www.w3.org/2000/svg">
<path d="M28.7368 59.0745C36.6481 46.1788 45.7572 32.9123 56.0955 19.2639C59.8043 14.355 63.7652 9.54715 67.9573 4.84042C70.0586 2.52638 71.3824 1.23456 71.9498 0.953731C73.158 0.369603 74.3662 0.729068 75.585 2.04336C76.3099 2.72859 76.6777 3.50368 76.6777 4.3574C76.6777 5.90759 75.1437 8.77207 72.0758 12.9284C63.8493 23.9145 59.7308 31.1711 59.7308 34.7096C59.7308 36.6979 60.7814 37.1809 62.8827 36.1587C66.3498 34.4737 72.328 28.5089 80.7962 18.2754C82.2461 16.5342 83.4543 15.4334 84.4314 14.9616C85.0723 14.6471 85.7237 14.6807 86.3646 15.0514C87.0896 15.4783 87.4573 16.1186 87.4573 16.9836C87.4573 19.5672 84.0637 25.1838 77.287 33.8222C70.1847 42.966 63.4501 49.077 57.0726 52.1773C54.4881 53.4355 52.1136 53.8511 49.9283 53.4467C48.0686 53.1434 47.1441 51.4359 47.1441 48.3243C47.1441 46.1675 47.9951 43.3031 49.6866 39.7084C43.3092 47.6391 35.8076 59.5576 27.1713 75.4863C22.1702 85.1581 17.2007 96.5037 12.2837 109.501C10.424 114.376 8.12315 117.476 5.38097 118.802C2.39714 120.251 0.905212 119.464 0.905212 116.443C0.905212 113.421 3.24816 104.524 7.92352 89.4829C14.8578 67.14 22.1282 48.8972 29.7139 34.777C34.3892 26.0375 38.3081 20.904 41.4601 19.3762C42.5107 18.8707 43.4773 18.7472 44.3704 19.0056C45.421 19.365 45.9463 20.185 45.9463 21.4769C45.9463 22.7687 45.1373 24.9704 43.5298 28.082C43.2041 28.6774 41.0713 32.5978 37.1104 39.8657C33.4752 46.7179 30.691 53.1209 28.7578 59.0633L28.7368 59.0745Z" fill="white"/>
</svg>
