<svg width="59" height="106" viewBox="0 0 59 106" fill="none" xmlns="http://www.w3.org/2000/svg">
<path d="M48.9915 1.56228C55.6106 -1.65043 58.9201 1.05678 58.9201 9.68391C58.9201 21.1643 53.9611 38.104 44.0325 60.5256C33.2214 84.8456 22.7675 99.4488 12.6813 104.346C8.00592 106.616 4.57033 105.953 2.3955 102.347C1.27131 100.572 0.703979 98.0334 0.703979 94.7533C0.703979 83.711 4.25517 69.9952 11.3575 53.6059C17.9766 38.4073 25.7618 25.3094 34.7133 14.312C39.956 7.8866 44.7154 3.6292 48.9915 1.55105V1.56228ZM36.4048 56.5939C34.3876 55.8526 33.379 54.9988 33.379 54.0552C33.379 53.37 34.6713 50.8425 37.2559 46.484C44.5158 34.2398 48.151 25.4554 48.151 20.0971C48.151 19.4119 47.9515 18.8165 47.5417 18.3223C46.8903 17.345 45.8817 17.1877 44.5158 17.8505C41.9313 19.1086 38.1384 23.6244 33.1374 31.3978C26.6759 41.4403 21.7589 50.9436 18.3653 59.919C14.4149 70.2086 12.4291 78.1168 12.4291 83.6324C12.4291 85.1039 12.7969 86.216 13.5218 86.9911C14.5725 88.0358 15.8963 88.1706 17.5143 87.3843C21.3912 85.5083 25.5412 80.386 29.9854 72.0172C31.9186 68.4899 33.4946 65.0526 34.7028 61.7051C35.911 58.3576 36.4784 56.6613 36.3943 56.6164L36.4048 56.5939Z" fill="white"/>
</svg>
