<svg width="114" height="201" viewBox="0 0 114 201" fill="none" xmlns="http://www.w3.org/2000/svg">
<path d="M75.0163 54.3718C67.8299 66.9193 62.1039 76.4339 57.8278 82.9042C49.3596 95.6427 42.2888 103.382 36.6468 106.123C33.9047 107.449 31.7298 107.438 30.1118 106.056C28.9036 104.921 28.2942 103.057 28.2942 100.462C28.2942 91.1494 33.4634 76.2541 43.7912 55.7984C54.2766 35.0057 61.8623 23.4691 66.5482 21.2C67.8404 20.571 68.9646 20.6271 69.9417 21.3685C70.8243 21.8852 71.2761 22.7951 71.2761 24.087C71.2761 25.9854 70.8138 27.8726 69.8892 29.7485C68.9647 31.6245 66.317 36.0728 61.9568 43.1048C57.355 50.4289 53.1209 58.0001 49.244 65.8409C44.8103 74.7264 42.583 80.725 42.583 83.8254C42.583 85.6339 43.392 86.1506 44.9995 85.3643C48.2249 83.8029 54.2767 76.1643 63.1546 62.4485C68.723 53.7877 73.0832 46.677 76.2246 41.0941C76.8655 39.9146 79.6917 34.444 84.6928 24.6823C89.2106 16.0215 91.9948 10.8317 93.0454 9.11303C95.4619 4.92303 97.7208 2.31693 99.8221 1.2947C101.114 0.665639 102.281 0.710579 103.331 1.40704C104.298 2.05857 104.781 3.11448 104.781 4.58603C104.781 7.09105 103.163 12.0562 99.9376 19.4926C96.0607 28.5353 92.5096 36.949 89.2841 44.7224C84.199 56.8543 80.2906 67.3799 77.5484 76.3103C82.7071 70.6151 87.435 64.3918 91.7111 57.6631C98.971 46.3737 103.415 38.443 105.023 33.8599C106.557 29.6699 108.133 27.1761 109.74 26.3898C111.999 25.2889 113.134 25.9517 113.134 28.3668C113.134 32.9388 109.498 41.521 102.239 54.1022C93.5287 69.1997 82.7911 83.6456 70.0363 97.4288C63.2596 118.143 56.8402 135.712 50.7885 150.124C39.4941 176.747 27.8319 192.979 15.8126 198.809C10.8956 201.202 6.93463 201.089 3.9508 198.483C1.60786 196.517 0.44165 193.159 0.44165 188.407C0.44165 174.949 9.27755 156.898 26.9494 134.251C32.1185 127.601 39.7778 118.705 49.948 107.561C54.0665 103.068 57.292 99.462 59.6349 96.7773C61.0848 92.1043 63.3017 85.7687 66.296 77.7594C69.6055 69.0761 72.5053 61.2802 75.0059 54.3718H75.0163ZM52.7427 116.042C44.1905 124.849 35.4386 135.745 26.4766 148.72C17.4411 161.986 12.9233 172.467 12.9233 180.15C12.9233 181.79 13.3646 182.959 14.2576 183.644C15.4659 184.61 17.0418 184.621 18.975 183.678C25.0267 180.735 31.7298 170.715 39.0633 153.606C40.2715 150.775 43.5811 141.71 48.9919 126.399C50.1161 123.265 51.3664 119.805 52.7427 116.042Z" fill="white"/>
</svg>
