<svg width="96" height="224" viewBox="0 0 96 224" fill="none" xmlns="http://www.w3.org/2000/svg">
<path d="M11.9905 192.813C13.7661 191.948 15.258 192.094 16.4663 193.228C17.2753 193.959 17.6745 195.183 17.6745 196.913C17.6745 200.968 16.6239 205.753 14.5226 211.258C12.3478 217.054 9.4795 220.828 5.92833 222.547C2.21955 224.344 0.359863 223.008 0.359863 218.526C0.359863 214.044 1.65216 208.843 4.23674 202.923C6.57968 197.564 9.15375 194.194 11.98 192.824L11.9905 192.813ZM90.6732 0.870297C92.4488 0.00533714 93.8252 0.11767 94.7918 1.20729C95.6008 2.10595 96 3.38654 96 5.01536C96 8.55384 93.5836 16.3722 88.7401 28.4704C68.8934 77.8854 50.9799 119.797 34.9996 154.215C32.415 159.866 30.8076 163.584 30.1562 165.37C28.0549 170.616 25.88 173.784 23.6211 174.884C22.0031 175.671 20.5953 175.368 19.3871 173.963C18.3364 172.84 17.8111 171.324 17.8111 169.425C17.8111 167.01 18.9773 163.078 21.3202 157.63C21.9611 156.114 24.7873 150.037 29.7884 139.41C36.1658 124.84 42.5012 110.417 48.7946 96.1507C50.8959 91.253 57.1892 75.9421 67.6746 50.2292C71.3834 41.1752 74.3358 34.0533 76.5106 28.8523C79.0952 22.6853 81.5537 16.3946 83.8966 9.99169C85.6722 5.25126 87.9311 2.20705 90.6732 0.88153V0.870297Z" fill="white"/>
</svg>
