<svg width="59" height="107" viewBox="0 0 59 107" fill="none" xmlns="http://www.w3.org/2000/svg">
<path d="M48.9257 1.94387C55.5447 -1.26883 58.8543 1.43836 58.8543 10.0655C58.8543 21.5459 53.8952 38.4856 43.9666 60.9072C33.1555 85.2271 22.7016 99.8304 12.6154 104.728C7.94003 106.997 4.50445 106.334 2.32962 102.729C1.19492 100.954 0.638062 98.415 0.638062 95.1349C0.638062 84.0926 4.18925 70.3768 11.2916 53.9875C17.9107 38.7889 25.6959 25.6909 34.6579 14.6936C39.9006 8.26816 44.6601 4.01078 48.9362 1.93263L48.9257 1.94387ZM36.339 56.9755C34.3217 56.2341 33.3131 55.3804 33.3131 54.4368C33.3131 53.7516 34.6054 51.2241 37.19 46.8656C44.4499 34.6214 48.0852 25.837 48.0852 20.4787C48.0852 19.7935 47.8855 19.1981 47.4758 18.7039C46.8244 17.7266 45.8157 17.5693 44.4499 18.2321C41.8653 19.4902 38.0725 24.006 33.0715 31.7794C26.61 41.8219 21.693 51.3252 18.2994 60.3006C14.349 70.5902 12.3633 78.4984 12.3633 84.014C12.3633 85.4855 12.731 86.5976 13.4559 87.3614C14.5066 88.4061 15.8304 88.5409 17.4484 87.7546C21.3252 85.8787 25.4753 80.7563 29.9195 72.3875C31.8527 68.8603 33.4287 65.4229 34.6369 62.0754C35.8452 58.7279 36.4125 57.0317 36.3284 56.9868L36.339 56.9755Z" fill="white"/>
</svg>
