<svg width="110" height="211" viewBox="0 0 110 211" fill="none" xmlns="http://www.w3.org/2000/svg">
<path d="M53.0992 131.079C47.8564 147.513 45.2298 159.353 45.2298 166.609C45.2298 170.148 45.8707 172.765 47.163 174.473C48.781 176.629 50.9138 177.045 53.5824 175.753C59.0668 173.091 65.4022 166.093 72.5886 154.747C77.348 147.434 81.3405 140.402 84.5764 133.662C86.6777 129.191 88.6529 126.507 90.5126 125.608C92.3722 124.709 93.2968 125.249 93.2968 127.237C93.2968 130.517 89.588 139.043 82.16 152.826C71.1808 173.248 60.5377 185.975 50.2099 190.985C43.9901 194.007 39.5984 192.906 37.0138 187.683C35.0806 183.875 34.1035 179.348 34.1035 174.079C34.1035 169.676 35.0701 162.7 37.0138 153.129C31.7711 160.341 23.8177 175.585 13.1642 198.871C10.3379 205.162 7.75336 208.869 5.42093 210.003C4.21269 210.587 3.16205 210.543 2.269 209.846C1.38646 209.071 0.934692 208.083 0.934692 206.869C0.934692 203.421 5.16876 189.851 13.6475 166.149C28.5771 124.653 44.5574 88.0777 61.5779 56.4337C70.7815 39.2019 79.0501 25.8681 86.3941 16.4321C93.0131 7.8724 98.2979 2.62647 102.248 0.705589C104.024 -0.159371 105.6 -0.136906 106.966 0.739287C108.741 1.77275 109.624 3.67114 109.624 6.43452C109.624 13.7698 106.031 24.9132 98.8547 39.8759C91.3531 55.3441 78.5983 75.8111 60.6007 101.277C50.5146 115.487 41.437 127.237 33.3681 136.493C32.3174 139.245 29.3756 147.232 24.5321 160.454C34.6183 143.907 42.6032 132.011 48.4973 124.743C52.2902 120.137 57.4173 114.768 63.8683 108.612C68.2284 104.512 71.3699 101.996 73.3135 101.052C74.3642 100.547 75.2887 100.524 76.0977 100.996C76.9803 101.344 77.4321 102.164 77.4321 103.456C77.4321 106.309 75.6144 109.174 71.9897 112.049C65.854 117.015 59.5606 123.35 53.1096 131.056L53.0992 131.079ZM42.6873 113.869C55.9254 98.1315 68.2705 80.2706 79.7225 60.2979C85.4485 50.3565 90.0503 41.2239 93.5174 32.8888C95.9339 27.0588 97.1527 23.1496 97.1527 21.1613C97.1527 19.173 96.3016 18.6001 94.6101 19.4201C90.0923 21.6106 82.3071 32.8102 71.2438 53.0188C62.1242 69.7788 52.6053 90.066 42.6768 113.869H42.6873Z" fill="white"/>
</svg>
