<svg width="102" height="207" viewBox="0 0 102 207" fill="none" xmlns="http://www.w3.org/2000/svg">
<path d="M73.7692 26.8081C77.0788 22.9551 79.5373 20.2142 81.1553 18.563C84.4648 15.2267 87.6903 12.8003 90.8422 11.2726C94.3934 9.5539 97.0515 9.35169 98.8271 10.6997C100.603 12.0364 101.485 14.9122 101.485 19.3043C101.485 25.3478 99.5101 33.5481 95.5491 43.9276C89.4134 60.2832 81.9958 74.4034 73.2755 86.3219C65.9315 96.3532 59.0287 102.947 52.5778 106.07C49.0266 107.8 45.5174 108.036 42.0503 106.778C30.9975 136.04 21.111 165.213 12.3906 194.296C10.531 201.148 8.35617 205.181 5.85564 206.394C4.6474 206.978 3.43913 206.709 2.22039 205.563C1.33784 204.788 0.886047 203.664 0.886047 202.193C0.886047 197.531 6.21284 179.805 16.8664 149.015C33.33 101.509 48.9426 61.1033 63.7146 27.7855C66.7825 20.7759 68.8417 15.9793 69.8923 13.3957C72.7186 6.41982 75.4608 2.28599 78.1189 0.982932C80.8611 -0.342591 82.2374 0.758263 82.2374 4.29674C82.2374 6.28502 81.2709 9.43032 79.3272 13.7327C76.9842 19.1808 75.1351 23.5393 73.7588 26.7857L73.7692 26.8081ZM46.5365 93.7358C48.3121 94.8591 50.529 94.7693 53.1977 93.4775C60.6993 89.8379 69.0098 78.6833 78.1294 60.0136C81.523 53.1052 84.2232 46.3989 86.2404 39.9061C87.8584 34.7276 88.6569 31.0094 88.6569 28.7627C88.6569 27.2126 88.3101 26.2128 87.6272 25.7635C86.9443 25.3254 85.8727 25.4489 84.4228 26.1566C80.6299 27.9989 75.9861 33.0538 70.5017 41.3215C65.259 49.3084 60.216 59.3846 55.3725 71.5726C50.9283 82.7834 47.9864 90.1749 46.5365 93.7246V93.7358Z" fill="white"/>
</svg>
