<svg width="61" height="106" viewBox="0 0 61 106" fill="none" xmlns="http://www.w3.org/2000/svg">
<path d="M36.1378 69.8613C33.4796 76.1631 30.853 81.6562 28.2685 86.3629C23.1833 95.5629 18.1402 101.371 13.1392 103.797C8.779 105.909 5.39593 105.358 2.96894 102.134C1.435 100.034 0.66803 97.0345 0.66803 93.159C0.66803 83.577 3.49426 71.6473 9.13622 57.3362C15.4296 41.4299 23.0152 27.8714 31.8932 16.6494C37.7032 9.34778 43.3137 4.37145 48.714 1.7541C52.1076 0.114047 54.9233 -0.144333 57.1822 1.00146C59.1154 2.04615 60.082 3.82103 60.082 6.32604C60.082 8.22446 59.399 11.19 58.0227 15.2227C59.2309 16.4472 59.8403 17.7502 59.8403 19.1319C59.8403 20.9405 58.7056 24.4677 56.4467 29.7024C54.1038 35.0719 51.7609 41.8119 49.4284 49.9335C46.9279 58.5719 45.6776 65.132 45.6776 69.6141C45.6776 73.2424 46.6862 75.725 48.7035 77.073C49.2708 77.3988 50.9203 77.5897 53.6625 77.6347C55.6798 77.6908 56.6884 79.0164 56.6884 81.6C56.6884 83.2401 56.121 84.8464 54.9968 86.4303C53.7886 88.1378 52.3702 89.3847 50.7627 90.171C46.4026 92.2828 42.6518 92.0357 39.5103 89.4183C36.9258 87.3065 35.6335 83.7118 35.6335 78.6119C35.6335 76.882 35.791 73.9614 36.1167 69.8388L36.1378 69.8613ZM51.2671 19.9407C50.3005 18.5141 49.2498 17.6154 48.1151 17.2672C46.9804 16.9077 45.7722 17.0425 44.4799 17.6716C38.3441 20.6484 31.6936 29.6238 24.5071 44.5752C16.5958 61.0993 12.6454 73.7592 12.6454 82.5548C12.6454 84.7116 13.0236 86.1607 13.7906 86.9133C14.5575 87.666 15.7028 87.666 17.2367 86.9133C21.1136 85.0374 25.6313 78.4435 30.79 67.1316C33.6898 60.8859 37.283 52.0341 41.5591 40.5425C44.3853 33.0499 46.4446 27.995 47.7369 25.3776C48.3778 24.0296 49.5545 22.2098 51.246 19.9182L51.2671 19.9407Z" fill="white"/>
</svg>
