<svg width="76" height="115" viewBox="0 0 76 115" fill="none" xmlns="http://www.w3.org/2000/svg">
<path d="M60.3968 3.15562C65.3978 0.729241 69.1486 -0.146954 71.6491 0.538274C74.1496 1.2235 75.3999 3.50384 75.3999 7.39054C75.3999 12.4792 73.6243 18.2643 70.0731 24.7347C66.6796 30.868 61.605 36.9564 54.8178 43.0112C51.1091 46.28 47.9992 48.5267 45.4986 49.7399C42.105 51.3799 40.4135 50.6161 40.4135 47.4146C40.4135 45.2578 41.3801 43.146 43.3238 41.0903C43.8071 40.596 46.5492 38.5291 51.5503 34.9008C54.5341 32.7664 57.2763 29.9244 59.7768 26.3747C61.9517 23.3305 63.0443 20.6458 63.0443 18.3205C63.0443 16.5119 62.561 15.4111 61.5944 15.0179C60.6278 14.6248 59.178 14.8944 57.2343 15.8379C52.5484 18.1071 47.3898 22.6453 41.7373 29.4414C35.2023 37.1923 31.9348 44.2131 31.9348 50.5037C31.9348 54.997 34.0676 59.5577 38.3542 64.2195C43.1136 69.2408 45.4986 74.2958 45.4986 79.3844C45.4986 86.9781 42.3466 94.4594 36.0533 101.828C32.1764 106.389 27.7847 109.86 22.8572 112.242C15.114 116.005 9.21989 115.881 5.18542 111.893C2.35919 109.04 0.951294 104.715 0.951294 98.9415C0.951294 92.2128 2.56927 85.7761 5.79475 79.6428C7.89604 75.61 10.0709 73.0376 12.3298 71.9368C14.347 70.9595 15.3556 71.3302 15.3556 73.0601C15.3556 73.7566 14.9879 74.9585 14.2629 76.6997C12.4033 81.3053 11.4788 86.1131 11.4788 91.1231C11.4788 95.3468 12.8866 98.245 15.7128 99.8064C18.2134 101.177 21.0816 101.087 24.3071 99.5144C27.459 97.9867 29.9176 95.6726 31.6931 92.561C33.143 89.9549 33.868 87.1915 33.868 84.2596C33.868 80.6313 31.9348 76.8794 28.0579 72.9702C22.7311 67.6232 20.073 61.7033 20.073 55.2329C20.073 46.6058 24.4752 36.8329 33.2691 25.9254C41.8214 15.3886 50.8569 7.80618 60.3862 3.18932L60.3968 3.15562Z" fill="white"/>
</svg>
