<svg width="60" height="94" viewBox="0 0 60 94" fill="none" xmlns="http://www.w3.org/2000/svg">
<path d="M35.473 59.9899C32.0059 66.8534 28.938 72.4813 26.2694 76.8847C21.5835 84.6806 16.9501 89.6906 12.3483 91.926C8.39789 93.8469 5.33 93.4425 3.14466 90.7016C1.61072 88.7694 0.84375 85.9499 0.84375 82.2429C0.84375 71.1108 5.27745 56.193 14.1554 37.4672C18.2739 28.739 22.3399 21.6283 26.3849 16.1353C29.5368 11.7543 32.1109 9.08081 34.1281 8.10351C35.2523 7.55308 36.303 7.56431 37.2801 8.12597C38.0891 8.68763 38.4883 9.44027 38.4883 10.3839C38.4883 12.0239 36.9964 15.4276 34.0126 20.5836C27.3095 32.3785 22.2349 42.7019 18.7572 51.5425C14.7227 61.8658 12.7056 69.4033 12.7056 74.155C12.7056 75.3682 12.9682 76.1657 13.4935 76.5589C14.0189 76.9521 14.7648 76.9071 15.7314 76.4466C19.8499 74.4471 25.5759 65.3706 32.9199 49.206C36.7128 40.8147 39.9802 31.9742 42.7224 22.7067C44.1723 17.6855 46.074 12.9226 48.4064 8.42929C50.6653 4.31792 52.8821 1.72304 55.0675 0.667111C56.2757 0.082982 57.3684 0.116667 58.335 0.756962C59.3857 1.45342 59.911 2.54306 59.911 4.00339C59.911 7.10376 57.1268 15.4501 51.5584 29.0198C47.7655 38.3659 45.8639 45.5439 45.8639 50.5427C45.8639 55.8897 47.1982 59.8214 49.8563 62.3264C50.5813 63.0116 52.7981 63.5733 56.5174 64.0114C58.293 64.2697 59.1755 65.6514 59.1755 68.1564C59.1755 69.7066 58.5451 71.3467 57.2948 73.0766C56.0446 74.8065 54.5317 76.0983 52.7561 76.9633C48.7216 78.9179 45.0443 78.9853 41.7453 77.1318C38.7615 75.4805 36.8599 71.9083 36.0614 66.4377C35.8933 65.7413 35.6936 63.5958 35.452 60.0011L35.473 59.9899Z" fill="white"/>
</svg>
