<svg width="87" height="120" viewBox="0 0 87 120" fill="none" xmlns="http://www.w3.org/2000/svg">
<path d="M28.1207 58.6532C36.0321 45.7574 45.1411 32.4909 55.4795 18.8425C59.1883 13.9336 63.1492 9.12578 67.3413 4.41905C69.4426 2.10501 70.7664 0.813176 71.3337 0.532345C72.542 -0.051784 73.7502 0.307681 74.969 1.62197C75.6939 2.3072 76.0616 3.08229 76.0616 3.93602C76.0616 5.4862 74.5277 8.35067 71.4598 12.507C63.2333 23.4931 59.1147 30.7498 59.1147 34.2882C59.1147 36.2765 60.1654 36.7596 62.2667 35.7373C65.7338 34.0524 71.7119 28.0875 80.1801 17.854C81.63 16.1129 82.8383 15.012 83.8154 14.5402C84.4563 14.2257 85.1076 14.2594 85.7485 14.6301C86.4735 15.0569 86.8412 15.6972 86.8412 16.5622C86.8412 19.1458 83.4477 24.7624 76.671 33.4008C69.5687 42.5447 62.834 48.6555 56.4566 51.7559C53.8721 53.014 51.4975 53.4297 49.3122 53.0253C47.4526 52.722 46.528 51.0145 46.528 47.9029C46.528 45.7461 47.379 42.8817 49.0706 39.2871C42.6932 47.2177 35.1916 59.1362 26.5553 75.0649C21.5542 84.7367 16.5847 96.0823 11.6677 109.079C9.80804 113.954 7.50712 117.055 4.76494 118.38C1.78111 119.829 0.289185 119.043 0.289185 116.021C0.289185 113 2.63211 104.103 7.30748 89.0616C14.2417 66.7186 21.5122 48.4758 29.0978 34.3556C33.7732 25.6162 37.6921 20.4826 40.844 18.9549C41.8947 18.4494 42.8613 18.3258 43.7543 18.5842C44.805 18.9436 45.3303 19.7637 45.3303 21.0555C45.3303 22.3473 44.5213 24.549 42.9138 27.6606C42.5881 28.256 40.4553 32.1764 36.4944 39.4443C32.8592 46.2966 30.075 52.6995 28.1418 58.6419L28.1207 58.6532Z" fill="white"/>
</svg>
