<svg width="73" height="152" viewBox="0 0 73 152" fill="none" xmlns="http://www.w3.org/2000/svg">
<path d="M37.0663 54.962C31.8236 66.2289 26.9802 78.3272 22.5464 91.2566C16.169 109.713 12.9855 122.732 12.9855 130.326C12.9855 132.483 13.4058 133.92 14.2568 134.628C15.1079 135.336 16.3791 135.28 18.0707 134.46C22.1052 132.505 26.9907 126.08 32.7167 115.183C36.3519 108.421 39.5773 101.85 42.4036 95.4691C43.9375 91.8745 45.5871 89.6503 47.3626 88.7853C48.4133 88.2798 49.2958 88.2349 50.0207 88.6505C50.6616 89.1111 50.9874 89.7289 50.9874 90.5152C50.9874 93.7055 47.0684 102.726 39.2516 117.565C29.8904 135.403 21.3382 146.187 13.5949 149.95C9.4764 151.95 6.05132 151.59 3.30914 148.861C1.61761 147.097 0.766602 143.839 0.766602 139.099C0.766602 128.663 3.59283 115.127 9.23479 98.4908C10.6111 94.3795 14.3934 84.2021 20.6132 67.9926C18.4384 69.6551 16.7784 70.7559 15.6542 71.3064C13.9627 72.1264 12.4707 72.4185 11.1785 72.1826C9.40287 71.8343 8.5203 70.756 8.5203 68.9474C8.5203 66.7906 9.68654 64.499 12.0295 62.0614C12.6704 61.4099 15.6647 59.3879 20.9915 56.0292C22.9247 54.7486 25.7509 52.5581 29.4597 49.4577C32.2859 42.6504 36.8877 33.0459 43.2546 20.6332C46.8058 13.736 49.2643 9.1753 50.6406 6.95112C52.5738 3.85074 54.2759 1.95232 55.7258 1.24463C56.7764 0.73913 57.8271 0.828996 58.8777 1.52546C59.8443 2.17699 60.3276 3.06441 60.3276 4.18774C60.3276 6.43439 58.0687 11.9724 53.551 20.8129C50.5671 26.5756 48.3502 31.1475 46.8898 34.5287C55.8518 27.5978 62.2608 23.1832 66.1377 21.3072C70.5714 19.1504 72.7988 20.0603 72.7988 24.0256C72.7988 26.0139 72.0318 27.845 70.4978 29.5412C69.6889 30.4511 67.598 31.9001 64.2044 33.8884C62.8281 34.4726 56.7449 39.067 45.9233 47.6829C42.9394 50.0868 39.9871 52.5019 37.0873 54.9508L37.0663 54.962Z" fill="white"/>
</svg>
