<svg width="24" height="24" viewBox="0 0 24 24" fill="none" xmlns="http://www.w3.org/2000/svg">
<g clip-path="url(#clip0_3310_8814)">
<path d="M23.6416 23.2937H23.1212V16.0905C23.1219 16.0438 23.1134 15.9975 23.0961 15.9542C23.0787 15.9108 23.053 15.8714 23.0202 15.8381C22.9875 15.8048 22.9485 15.7784 22.9054 15.7604C22.8624 15.7424 22.8162 15.7331 22.7695 15.7331C22.7228 15.7331 22.6766 15.7424 22.6336 15.7604C22.5906 15.7784 22.5515 15.8048 22.5188 15.8381C22.4861 15.8714 22.4603 15.9108 22.443 15.9542C22.4256 15.9975 22.4171 16.0438 22.4179 16.0905V20.624H20.472C20.1347 20.624 19.8605 20.8871 19.8605 21.2105V23.2937H19.0873C19.1091 23.2135 19.122 23.1296 19.122 23.0426C19.1227 22.996 19.1142 22.9496 19.0969 22.9063C19.0796 22.863 19.0538 22.8235 19.021 22.7902C18.9883 22.757 18.9493 22.7305 18.9062 22.7125C18.8632 22.6945 18.817 22.6852 18.7703 22.6852C18.7237 22.6852 18.6775 22.6945 18.6344 22.7125C18.5914 22.7305 18.5523 22.757 18.5196 22.7902C18.4869 22.8235 18.4611 22.863 18.4438 22.9063C18.4264 22.9496 18.4179 22.996 18.4187 23.0426C18.4187 23.1811 18.306 23.2937 18.1676 23.2937C18.0292 23.2937 17.9166 23.1811 17.9166 23.0426V19.8771H20.4257C21.018 19.8771 21.5 19.3952 21.5 18.8028V18.4527C21.5 18.2189 21.3097 18.0286 21.0757 18.0286H19.1396C19.022 17.3115 18.5525 16.7416 17.9528 16.5805C17.938 16.4996 17.8953 16.4264 17.8322 16.3738C17.769 16.3211 17.6894 16.2923 17.6071 16.2923C17.4346 16.2923 17.2915 16.4166 17.2617 16.5805C16.6619 16.7416 16.1923 17.3115 16.0749 18.0286H14.0542C13.8202 18.0286 13.6299 18.2189 13.6299 18.4527V18.8028C13.6299 19.3952 14.1118 19.8771 14.7042 19.8771H17.2133V23.0426C17.2133 23.1811 17.1006 23.2937 16.9622 23.2937C16.8238 23.2937 16.7112 23.1811 16.7112 23.0426C16.712 22.996 16.7034 22.9496 16.6861 22.9063C16.6688 22.863 16.643 22.8235 16.6103 22.7902C16.5775 22.757 16.5385 22.7305 16.4955 22.7125C16.4524 22.6945 16.4062 22.6852 16.3596 22.6852C16.3129 22.6852 16.2667 22.6945 16.2236 22.7125C16.1806 22.7305 16.1416 22.757 16.1088 22.7902C16.0761 22.8235 16.0503 22.863 16.033 22.9063C16.0157 22.9496 16.0071 22.996 16.0079 23.0426C16.0079 23.1296 16.0206 23.2135 16.0425 23.2937H15.354V21.2105C15.354 20.8871 15.0797 20.624 14.7425 20.624H12.7966V16.0905C12.7974 16.0438 12.7888 15.9975 12.7715 15.9542C12.7542 15.9108 12.7284 15.8714 12.6957 15.8381C12.6629 15.8048 12.6239 15.7784 12.5809 15.7604C12.5378 15.7424 12.4916 15.7331 12.4449 15.7331C12.3983 15.7331 12.3521 15.7424 12.309 15.7604C12.266 15.7784 12.227 15.8048 12.1942 15.8381C12.1615 15.8714 12.1357 15.9108 12.1184 15.9542C12.1011 15.9975 12.0925 16.0438 12.0933 16.0905V23.2937H10.7228V22.486C10.7228 22.1727 10.4678 21.918 10.1548 21.918H10.0376V16.9938C10.0376 16.9005 10.0005 16.8111 9.93458 16.7451C9.86864 16.6792 9.77919 16.6421 9.68593 16.6421C9.59266 16.6421 9.50322 16.6792 9.43727 16.7451C9.37132 16.8111 9.33427 16.9005 9.33427 16.9938V21.918H4.89194V13.6451C4.89194 13.5969 4.93112 13.5578 4.97931 13.5578H9.24694C9.29508 13.5578 9.33427 13.5969 9.33427 13.6451V15.3528C9.33427 15.4461 9.37132 15.5355 9.43727 15.6014C9.50322 15.6674 9.59266 15.7044 9.68593 15.7044C9.77919 15.7044 9.86864 15.6674 9.93458 15.6014C10.0005 15.5355 10.0376 15.4461 10.0376 15.3528V13.6451C10.0376 13.2093 9.68288 12.8545 9.24694 12.8545H4.97931C4.54333 12.8545 4.18862 13.2093 4.18862 13.6451V21.918H4.07144C3.75831 21.918 3.50345 22.1727 3.50345 22.486V23.2936H2.99481V21.2916C2.99331 21.1993 2.9556 21.1114 2.88981 21.0466C2.82403 20.9819 2.73544 20.9457 2.64316 20.9457C2.55088 20.9457 2.46229 20.9819 2.39651 21.0466C2.33072 21.1114 2.29301 21.1993 2.2915 21.2916V23.2936H0.351679C0.258408 23.2936 0.168957 23.3307 0.103004 23.3967C0.0370518 23.4626 0 23.5521 0 23.6453C0 23.7386 0.0370518 23.8281 0.103004 23.894C0.168957 23.96 0.258408 23.997 0.351679 23.997H23.6416C23.6882 23.9978 23.7346 23.9892 23.7779 23.9719C23.8212 23.9546 23.8607 23.9288 23.894 23.8961C23.9272 23.8633 23.9537 23.8243 23.9717 23.7813C23.9897 23.7382 23.999 23.692 23.999 23.6454C23.999 23.5987 23.9897 23.5525 23.9717 23.5094C23.9537 23.4664 23.9272 23.4274 23.894 23.3946C23.8607 23.3619 23.8212 23.3361 23.7779 23.3188C23.7346 23.3015 23.6882 23.2929 23.6416 23.2937ZM17.6074 17.2376C17.9882 17.2376 18.3119 17.5702 18.4235 18.0286H16.791C16.9027 17.5702 17.2263 17.2376 17.6073 17.2376H17.6074ZM14.3331 18.8028V18.7318H20.7968V18.8028C20.7968 19.0075 20.6304 19.174 20.4259 19.174H14.7042C14.4995 19.174 14.3331 19.0076 14.3331 18.8028ZM20.5637 21.3271H22.4179V23.2937H20.5637V21.3271ZM12.7966 21.3271H14.6509V23.2937H12.7966V21.3271ZM4.20677 23.2937V22.6211H10.0196V23.2937H4.20677Z" fill="white" stroke="white" stroke-width="0.2"/>
<path d="M23.8955 7.03912L22.0937 4.3755C21.9404 4.14863 21.7391 3.95822 21.504 3.81777C21.2689 3.67731 21.0059 3.59023 20.7334 3.56269V1.07466C20.7335 0.482156 20.2513 0 19.6588 0H4.33492C3.74219 0 3.26027 0.482109 3.26027 1.07466V3.56269C2.98779 3.5902 2.72469 3.67727 2.48959 3.81773C2.25449 3.95819 2.05313 4.1486 1.89977 4.3755L0.075729 7.07245C0.0411242 7.11635 0.0175294 7.1679 0.00691667 7.22278C0.00560417 7.22902 0.00504167 7.23525 0.00415105 7.24144C0.00321355 7.24711 0.00251042 7.25283 0.00194792 7.25883C0.000910299 7.27047 0.00042538 7.28216 0.000494802 7.29384V8.8125C0.000494802 9.72 0.738775 10.4584 1.64627 10.4584C1.8753 10.4584 2.09337 10.4112 2.29169 10.3264V19.6426C2.2932 19.7349 2.33091 19.8229 2.3967 19.8876C2.46248 19.9523 2.55107 19.9886 2.64335 19.9886C2.73563 19.9886 2.82422 19.9523 2.89 19.8876C2.95579 19.8229 2.9935 19.7349 2.995 19.6426V9.89301C3.29693 10.2391 3.7406 10.4584 4.23499 10.4584C4.75975 10.4584 5.22761 10.2113 5.5292 9.82748C5.83075 10.2113 6.29856 10.4584 6.82337 10.4584C7.34814 10.4584 7.81595 10.2113 8.11773 9.82748C8.41914 10.2113 8.88713 10.4584 9.41195 10.4584C9.93676 10.4584 10.4045 10.2113 10.7061 9.82748C11.0077 10.2113 11.4755 10.4584 12.0005 10.4584C12.5252 10.4584 12.9931 10.2113 13.2947 9.82748C13.5962 10.2113 14.064 10.4584 14.5889 10.4584C15.1138 10.4584 15.5817 10.2113 15.8832 9.82748C16.1848 10.2113 16.6526 10.4584 17.1774 10.4584C17.7022 10.4584 18.17 10.2113 18.4716 9.82748C18.7731 10.2113 19.2412 10.4584 19.766 10.4584C20.2563 10.4584 20.697 10.2426 20.9988 9.90108V16.6439C20.9988 16.7372 21.0358 16.8266 21.1018 16.8926C21.1677 16.9585 21.2572 16.9956 21.3504 16.9956C21.4437 16.9956 21.5332 16.9585 21.5991 16.8926C21.6651 16.8266 21.7021 16.7372 21.7021 16.6439V10.3231C21.908 10.4125 22.1301 10.4586 22.3545 10.4584C23.2619 10.4584 24.0002 9.72 24.0002 8.8125V7.28925C24.0003 7.24269 23.991 7.19659 23.973 7.15365C23.9551 7.1107 23.9287 7.07177 23.8955 7.03912ZM5.34583 4.25536H6.31262C6.28138 4.31844 6.25333 4.38306 6.22858 4.44895L5.29436 6.93769H3.51808L4.67678 4.7362C4.83531 4.43517 5.08544 4.25536 5.34583 4.25536ZM19.3168 4.7362L20.4756 6.93769H18.7054L17.7711 4.44891C17.7465 4.38299 17.7184 4.31839 17.6871 4.25536H18.6477C18.9083 4.25536 19.1584 4.43517 19.3168 4.7362ZM17.1129 4.69589L17.9543 6.93769H16.1681L15.6165 4.49503C15.5983 4.41413 15.5763 4.33415 15.5505 4.25536H16.743C16.8415 4.25536 16.9992 4.39322 17.1129 4.69589ZM14.9307 4.64995L15.4472 6.93769H13.617L13.4378 4.54612C13.4305 4.45022 13.4231 4.3515 13.4122 4.25536H14.7853C14.8202 4.30627 14.8801 4.42659 14.9307 4.64995ZM12.7365 4.59867L12.9119 6.93769H11.0878L11.2632 4.59867C11.2749 4.44417 11.288 4.33336 11.2997 4.25536H12.7003C12.712 4.33336 12.725 4.44417 12.7365 4.59867ZM10.562 4.54617L10.3827 6.93769H8.55259L9.06934 4.64995C9.11968 4.42659 9.17954 4.30627 9.21451 4.25536H10.5876C10.5768 4.3515 10.5693 4.45022 10.562 4.54617ZM8.38337 4.49508L7.83165 6.93769H6.04548L6.88703 4.69613C7.00075 4.39327 7.15839 4.25536 7.25687 4.25536H8.44946C8.42355 4.33414 8.40149 4.41414 8.38337 4.49508ZM21.5114 4.76934L22.9779 6.93769H21.2703L19.939 4.40859C19.9112 4.35608 19.8809 4.30492 19.8482 4.25531H20.5431C20.7342 4.2552 20.9225 4.302 21.0913 4.39162C21.2602 4.48123 21.4044 4.61092 21.5115 4.7693L21.5114 4.76934ZM4.33492 0.703313H19.6588C19.8636 0.703313 20.0301 0.869953 20.0301 1.07466V1.66828H17.9409C17.8477 1.66828 17.7583 1.70532 17.6923 1.77125C17.6264 1.83718 17.5894 1.9266 17.5894 2.01984C17.5894 2.11308 17.6264 2.20251 17.6923 2.26844C17.7583 2.33437 17.8477 2.37141 17.9409 2.37141H20.0301V3.55219H3.96339V2.37141H16.1977C16.291 2.37141 16.3804 2.33437 16.4463 2.26844C16.5123 2.20251 16.5493 2.11308 16.5493 2.01984C16.5493 1.97366 16.5403 1.92792 16.5226 1.88525C16.5049 1.84257 16.4791 1.8038 16.4464 1.77113C16.4138 1.73846 16.375 1.71255 16.3323 1.69487C16.2897 1.67719 16.2439 1.66809 16.1977 1.66809H3.96339V1.07466C3.96339 0.869766 4.13003 0.703313 4.33492 0.703313ZM2.48224 4.76934C2.58923 4.61096 2.73347 4.48127 2.90229 4.39165C3.07111 4.30203 3.25935 4.25523 3.45049 4.25536H4.14541C4.11276 4.30501 4.08244 4.35616 4.05456 4.40864L2.72322 6.93769H1.01557L2.48224 4.76934ZM0.703572 8.8125V7.64409H2.58902V8.8125C2.58902 9.33234 2.16602 9.7553 1.64618 9.7553C1.12652 9.7553 0.703572 9.33234 0.703572 8.8125ZM4.23475 9.75516C3.71491 9.75516 3.2921 9.33234 3.2921 8.8125V7.64409H5.17755V8.8125C5.17736 9.33234 4.7546 9.75516 4.23475 9.75516ZM6.82333 9.75516C6.30348 9.75516 5.88067 9.33234 5.88067 8.8125V7.64409H7.76593V8.8125C7.76593 9.33234 7.34298 9.75516 6.82328 9.75516H6.82333ZM9.41185 9.75516C8.89201 9.75516 8.4692 9.33234 8.4692 8.8125V7.64409H10.3545V8.8125C10.3545 9.33234 9.93151 9.75516 9.41185 9.75516ZM12.0002 9.75516C11.4804 9.75516 11.0576 9.33234 11.0576 8.8125V7.64409H12.943V8.8125C12.943 9.33234 12.5201 9.75516 12.0002 9.75516ZM14.5888 9.75516C14.069 9.75516 13.6462 9.33234 13.6462 8.8125V7.64409H15.5316V8.8125C15.5316 9.33234 15.1086 9.75516 14.5888 9.75516ZM17.1773 9.75516C16.6575 9.75516 16.2347 9.33234 16.2347 8.8125V7.64409H18.12V8.8125C18.12 9.33234 17.697 9.75516 17.1773 9.75516ZM19.7658 9.75516C19.2461 9.75516 18.8231 9.33234 18.8231 8.8125V7.64409H20.7085V8.8125C20.7085 9.33234 20.2856 9.75516 19.7657 9.75516H19.7658ZM22.3543 9.75516C21.8346 9.75516 21.4116 9.33234 21.4116 8.8125V7.64409H23.2971V8.8125C23.2971 9.33234 22.8741 9.75516 22.3543 9.75516Z" fill="white" stroke="white" stroke-width="0.2"/>
<path d="M8.72235 17.8384C8.72085 17.9306 8.68314 18.0186 8.61735 18.0834C8.55157 18.1481 8.46298 18.1843 8.3707 18.1843C8.27842 18.1843 8.18983 18.1481 8.12405 18.0834C8.05826 18.0186 8.02055 17.9306 8.01904 17.8384C8.01904 17.7451 8.05608 17.6557 8.12201 17.5898C8.18794 17.5239 8.27736 17.4868 8.3706 17.4868C8.41679 17.4868 8.46252 17.4959 8.5052 17.5135C8.54787 17.5312 8.58665 17.5571 8.61932 17.5897C8.65198 17.6224 8.6779 17.6611 8.69557 17.7038C8.71325 17.7465 8.72235 17.7922 8.72235 17.8384Z" fill="white" stroke="white" stroke-width="0.2"/>
</g>
<defs>
<clipPath id="clip0_3310_8814">
<rect width="24" height="24" fill="white"/>
</clipPath>
</defs>
</svg>
