<svg width="1070" height="646" viewBox="0 0 1070 646" fill="none" xmlns="http://www.w3.org/2000/svg">
<g clip-path="url(#clip0_3307_25967)">
<path d="M69.7 561.63C72.16 556.91 77.84 545.65 86.75 527.85C94.35 512.65 106.49 490.2 123.16 460.51C132.84 443.29 141.59 428.56 149.43 416.33C154.11 408.98 158.26 404.49 161.87 402.85C163.94 401.91 165.67 401.85 167.05 402.68C168.28 403.27 168.89 404.46 168.89 406.22C168.89 408.83 167.31 413.66 164.17 420.69C163.55 422.12 160.41 429.12 154.72 441.68C144.58 464.26 137.71 480.2 134.1 489.52C124.19 515.06 116.93 536.29 112.33 553.21C109.64 563.26 108.3 570.36 108.3 574.51C108.3 575.43 108.38 576.36 108.53 577.29C108.91 580.11 109.11 581.79 109.11 582.33C109.11 584.56 108.26 587.02 106.58 589.7C105.12 592.13 103.47 593.76 101.63 594.6C99.48 595.58 97.71 595.11 96.33 593.2C95.18 591.8 94.6 589.38 94.6 585.92C94.6 564.19 112.73 513.25 148.98 433.12C130.01 462.01 109 500.58 85.96 548.83C80.89 559.35 76.7 566.82 73.4 571.24C70.17 575.55 67.1 578.36 64.18 579.69C61.26 581.02 59.11 580.72 57.73 578.82C56.81 577.55 56.35 575.8 56.35 573.57C56.35 554.37 67.76 518.97 90.57 467.37C82.81 478.8 75.36 491.37 68.22 505.05C55.24 530.22 43.64 555.26 33.43 580.18C28.59 592.13 22.72 607.82 15.8 627.24C12.34 637.1 8.35002 643.06 3.82002 645.12C2.67002 645.64 1.71002 645.58 0.94002 644.93C0.33002 644.52 0.0200195 643.81 0.0200195 642.81C0.0200195 641.35 1.44002 636.71 4.28002 628.89C10.35 611.77 14.99 599.33 18.22 591.57C34.73 551.89 54.28 512.76 76.86 474.16C86.31 458.04 92.83 447.4 96.45 442.23C100.21 436.91 103.32 433.69 105.78 432.58C107.32 431.88 108.81 431.89 110.27 432.61C112.04 433.42 112.92 434.86 112.92 436.94C112.92 439.24 111.31 443.78 108.08 450.54C98.86 469.78 90.38 490.53 82.62 512.79C75.94 532.72 71.64 549 69.72 561.62L69.7 561.63Z" fill="white"/>
<path d="M174.31 531.07C171.78 536.68 169.28 541.57 166.82 545.76C161.98 553.95 157.18 559.12 152.42 561.28C148.27 563.16 145.05 562.67 142.74 559.8C141.28 557.93 140.55 555.26 140.55 551.81C140.55 543.28 143.24 532.66 148.61 519.92C154.6 505.76 161.82 493.69 170.27 483.7C175.8 477.2 181.14 472.77 186.28 470.44C189.51 468.98 192.19 468.75 194.34 469.77C196.18 470.7 197.1 472.28 197.1 474.51C197.1 476.2 196.45 478.84 195.14 482.43C196.29 483.52 196.87 484.68 196.87 485.91C196.87 487.52 195.79 490.66 193.64 495.32C191.41 500.1 189.18 506.1 186.96 513.33C184.58 521.02 183.39 526.86 183.39 530.85C183.39 534.08 184.35 536.29 186.27 537.49C186.81 537.78 188.38 537.95 190.99 537.99C192.91 538.04 193.87 539.22 193.87 541.52C193.87 542.98 193.33 544.41 192.26 545.82C191.11 547.34 189.76 548.45 188.23 549.15C184.08 551.03 180.51 550.81 177.52 548.48C175.06 546.6 173.83 543.4 173.83 538.86C173.83 537.32 173.98 534.72 174.29 531.05L174.31 531.07ZM188.71 486.63C187.79 485.36 186.79 484.56 185.71 484.25C184.63 483.93 183.48 484.05 182.25 484.61C176.41 487.26 170.08 495.25 163.24 508.56C155.71 523.27 151.95 534.54 151.95 542.37C151.95 544.29 152.31 545.58 153.04 546.25C153.77 546.92 154.86 546.92 156.32 546.25C160.01 544.58 164.31 538.71 169.22 528.64C171.98 523.08 175.4 515.2 179.47 504.97C182.16 498.3 184.12 493.8 185.35 491.47C185.96 490.27 187.08 488.65 188.69 486.61L188.71 486.63Z" fill="white"/>
<path d="M222.47 490.31C230 478.83 238.67 467.02 248.51 454.87C252.04 450.5 255.81 446.22 259.8 442.03C261.8 439.97 263.06 438.82 263.6 438.57C264.75 438.05 265.9 438.37 267.06 439.54C267.75 440.15 268.1 440.84 268.1 441.6C268.1 442.98 266.64 445.53 263.72 449.23C255.89 459.01 251.97 465.47 251.97 468.62C251.97 470.39 252.97 470.82 254.97 469.91C258.27 468.41 263.96 463.1 272.02 453.99C273.4 452.44 274.55 451.46 275.48 451.04C276.09 450.76 276.71 450.79 277.32 451.12C278.01 451.5 278.36 452.07 278.36 452.84C278.36 455.14 275.13 460.14 268.68 467.83C261.92 475.97 255.51 481.41 249.44 484.17C246.98 485.29 244.72 485.66 242.64 485.3C240.87 485.03 239.99 483.51 239.99 480.74C239.99 478.82 240.8 476.27 242.41 473.07C236.34 480.13 229.2 490.74 220.98 504.92C216.22 513.53 211.49 523.63 206.81 535.2C205.04 539.54 202.85 542.3 200.24 543.48C197.4 544.77 195.98 544.07 195.98 541.38C195.98 538.69 198.21 530.77 202.66 517.38C209.26 497.49 216.18 481.25 223.4 468.68C227.85 460.9 231.58 456.33 234.58 454.97C235.58 454.52 236.5 454.41 237.35 454.64C238.35 454.96 238.85 455.69 238.85 456.84C238.85 457.99 238.08 459.95 236.55 462.72C236.24 463.25 234.21 466.74 230.44 473.21C226.98 479.31 224.33 485.01 222.49 490.3L222.47 490.31Z" fill="white"/>
<path d="M320.85 434.23C315.86 448.86 313.36 459.4 313.36 465.86C313.36 469.01 313.97 471.34 315.2 472.86C316.74 474.78 318.77 475.15 321.31 474C326.53 471.63 332.56 465.4 339.4 455.3C343.93 448.79 347.73 442.53 350.81 436.53C352.81 432.55 354.69 430.16 356.46 429.36C358.23 428.56 359.11 429.04 359.11 430.81C359.11 433.73 355.58 441.32 348.51 453.59C338.06 471.77 327.93 483.1 318.1 487.56C312.18 490.25 308 489.27 305.54 484.62C303.7 481.23 302.77 477.2 302.77 472.51C302.77 468.59 303.69 462.38 305.54 453.86C300.55 460.28 292.98 473.85 282.84 494.58C280.15 500.18 277.69 503.48 275.47 504.49C274.32 505.01 273.32 504.97 272.47 504.35C271.63 503.66 271.2 502.78 271.2 501.7C271.2 498.63 275.23 486.55 283.3 465.45C297.51 428.51 312.72 395.95 328.92 367.78C337.68 352.44 345.55 340.57 352.54 332.17C358.84 324.55 363.87 319.88 367.63 318.17C369.32 317.4 370.82 317.42 372.12 318.2C373.81 319.12 374.65 320.81 374.65 323.27C374.65 329.8 371.23 339.72 364.4 353.04C357.26 366.81 345.12 385.03 327.99 407.7C318.39 420.35 309.75 430.81 302.07 439.05C301.07 441.5 298.27 448.61 293.66 460.38C303.26 445.65 310.86 435.06 316.47 428.59C320.08 424.49 324.96 419.71 331.1 414.23C335.25 410.58 338.24 408.34 340.09 407.5C341.09 407.05 341.97 407.03 342.74 407.45C343.58 407.76 344.01 408.49 344.01 409.64C344.01 412.18 342.28 414.73 338.83 417.29C332.99 421.71 327 427.35 320.86 434.21L320.85 434.23ZM310.94 418.91C323.54 404.9 335.29 389 346.19 371.22C351.64 362.37 356.02 354.24 359.32 346.82C361.62 341.63 362.78 338.15 362.78 336.38C362.78 334.61 361.97 334.1 360.36 334.83C356.06 336.78 348.65 346.75 338.12 364.74C329.44 379.66 320.38 397.72 310.93 418.91H310.94Z" fill="white"/>
<path d="M457.83 389.09C450.99 400.26 445.54 408.73 441.47 414.49C433.41 425.83 426.68 432.72 421.31 435.16C418.7 436.34 416.63 436.33 415.09 435.1C413.94 434.09 413.36 432.43 413.36 430.12C413.36 421.83 418.28 408.57 428.11 390.36C438.09 371.85 445.31 361.58 449.77 359.56C451 359 452.07 359.05 453 359.71C453.84 360.17 454.27 360.98 454.27 362.13C454.27 363.82 453.83 365.5 452.95 367.17C452.07 368.84 449.55 372.8 445.4 379.06C441.02 385.58 436.99 392.32 433.3 399.3C429.08 407.21 426.96 412.55 426.96 415.31C426.96 416.92 427.73 417.38 429.26 416.68C432.33 415.29 438.09 408.49 446.54 396.28C451.84 388.57 455.99 382.24 458.98 377.27C459.59 376.22 462.28 371.35 467.04 362.66C471.34 354.95 473.99 350.33 474.99 348.8C477.29 345.07 479.44 342.75 481.44 341.84C482.67 341.28 483.78 341.32 484.78 341.94C485.7 342.52 486.16 343.46 486.16 344.77C486.16 347 484.62 351.42 481.55 358.04C477.86 366.09 474.48 373.58 471.41 380.5C466.57 391.3 462.85 400.67 460.24 408.62C465.15 403.55 469.65 398.01 473.72 392.02C480.63 381.97 484.86 374.91 486.39 370.83C487.85 367.1 489.35 364.88 490.88 364.18C493.03 363.2 494.11 363.79 494.11 365.94C494.11 370.01 490.65 377.65 483.74 388.85C475.45 402.29 465.23 415.15 453.09 427.42C446.64 445.86 440.53 461.5 434.77 474.33C424.02 498.03 412.92 512.48 401.48 517.67C396.8 519.8 393.03 519.7 390.19 517.38C387.96 515.63 386.85 512.64 386.85 508.41C386.85 496.43 395.26 480.36 412.08 460.2C417 454.28 424.29 446.36 433.97 436.44C437.89 432.44 440.96 429.23 443.19 426.84C444.57 422.68 446.68 417.04 449.53 409.91C452.68 402.18 455.44 395.24 457.82 389.09H457.83ZM436.63 443.99C428.49 451.83 420.16 461.53 411.63 473.08C403.03 484.89 398.73 494.22 398.73 501.06C398.73 502.52 399.15 503.56 400 504.17C401.15 505.03 402.65 505.04 404.49 504.2C410.25 501.58 416.63 492.66 423.61 477.43C424.76 474.91 427.91 466.84 433.06 453.21C434.13 450.42 435.32 447.34 436.63 443.99Z" fill="white"/>
<path d="M540.55 309.48C546.85 306.62 550 309.03 550 316.71C550 326.93 545.28 342.01 535.83 361.97C525.54 383.62 515.59 396.62 505.99 400.98C501.54 403 498.27 402.41 496.2 399.2C495.12 397.62 494.59 395.36 494.59 392.44C494.59 382.61 497.97 370.4 504.73 355.81C511.03 342.28 518.44 330.62 526.97 320.83C531.96 315.11 536.49 311.32 540.56 309.47L540.55 309.48ZM528.57 358.47C526.65 357.81 525.69 357.05 525.69 356.21C525.69 355.6 526.92 353.35 529.38 349.47C536.29 338.57 539.75 330.75 539.75 325.98C539.75 325.37 539.56 324.84 539.17 324.4C538.55 323.53 537.59 323.39 536.29 323.98C533.83 325.1 530.22 329.12 525.46 336.04C519.31 344.98 514.63 353.44 511.4 361.43C507.64 370.59 505.75 377.63 505.75 382.54C505.75 383.85 506.1 384.84 506.79 385.52C507.79 386.45 509.05 386.57 510.59 385.87C514.28 384.2 518.23 379.64 522.46 372.19C524.3 369.05 525.8 365.99 526.95 363.01C528.1 360.03 528.64 358.52 528.56 358.48L528.57 358.47Z" fill="white"/>
<path d="M582.95 346.91C579.65 353.02 576.73 358.03 574.19 361.95C569.73 368.89 565.32 373.35 560.94 375.34C557.18 377.05 554.26 376.69 552.18 374.25C550.72 372.53 549.99 370.02 549.99 366.72C549.99 356.81 554.21 343.53 562.66 326.86C566.58 319.09 570.45 312.76 574.3 307.87C577.3 303.97 579.75 301.59 581.67 300.72C582.74 300.23 583.74 300.24 584.67 300.74C585.44 301.24 585.82 301.91 585.82 302.75C585.82 304.21 584.4 307.24 581.56 311.83C575.18 322.33 570.35 331.52 567.04 339.39C563.2 348.58 561.28 355.29 561.28 359.52C561.28 360.6 561.53 361.31 562.03 361.66C562.53 362.01 563.24 361.97 564.16 361.56C568.08 359.78 573.53 351.7 580.52 337.31C584.13 329.84 587.24 321.97 589.85 313.72C591.23 309.25 593.04 305.01 595.26 301.01C597.41 297.35 599.52 295.04 601.6 294.1C602.75 293.58 603.79 293.61 604.71 294.18C605.71 294.8 606.21 295.77 606.21 297.07C606.21 299.83 603.56 307.26 598.26 319.34C594.65 327.66 592.84 334.05 592.84 338.5C592.84 343.26 594.11 346.76 596.64 348.99C597.33 349.6 599.44 350.1 602.98 350.49C604.67 350.72 605.51 351.95 605.51 354.18C605.51 355.56 604.91 357.02 603.72 358.56C602.53 360.1 601.09 361.25 599.4 362.02C595.56 363.76 592.06 363.82 588.92 362.17C586.08 360.7 584.27 357.52 583.51 352.65C583.35 352.03 583.16 350.12 582.93 346.92L582.95 346.91Z" fill="white"/>
<path d="M633.06 303.88C640.59 292.4 649.26 280.59 659.1 268.44C662.63 264.07 666.4 259.79 670.39 255.6C672.39 253.54 673.65 252.39 674.19 252.14C675.34 251.62 676.49 251.94 677.65 253.11C678.34 253.72 678.69 254.41 678.69 255.17C678.69 256.55 677.23 259.1 674.31 262.8C666.48 272.58 662.56 279.04 662.56 282.19C662.56 283.96 663.56 284.39 665.56 283.48C668.86 281.98 674.55 276.67 682.61 267.56C683.99 266.01 685.14 265.03 686.07 264.61C686.68 264.33 687.3 264.36 687.91 264.69C688.6 265.07 688.95 265.64 688.95 266.41C688.95 268.71 685.72 273.71 679.27 281.4C672.51 289.54 666.1 294.98 660.03 297.74C657.57 298.86 655.31 299.23 653.23 298.87C651.46 298.6 650.58 297.08 650.58 294.31C650.58 292.39 651.39 289.84 653 286.64C646.93 293.7 639.79 304.31 631.57 318.49C626.81 327.1 622.08 337.2 617.4 348.77C615.63 353.11 613.44 355.87 610.83 357.05C607.99 358.34 606.57 357.64 606.57 354.95C606.57 352.26 608.8 344.34 613.25 330.95C619.85 311.06 626.77 294.82 633.99 282.25C638.44 274.47 642.17 269.9 645.17 268.54C646.17 268.09 647.09 267.98 647.94 268.21C648.94 268.53 649.44 269.26 649.44 270.41C649.44 271.56 648.67 273.52 647.14 276.29C646.83 276.82 644.8 280.31 641.03 286.78C637.57 292.88 634.92 298.58 633.08 303.87L633.06 303.88Z" fill="white"/>
<path d="M796.08 191.27C800.84 189.11 804.41 188.33 806.79 188.94C809.17 189.55 810.36 191.58 810.36 195.04C810.36 199.57 808.67 204.72 805.29 210.48C802.06 215.94 797.23 221.36 790.77 226.75C787.24 229.66 784.28 231.66 781.9 232.74C778.67 234.2 777.06 233.52 777.06 230.67C777.06 228.75 777.98 226.87 779.83 225.04C780.29 224.6 782.9 222.76 787.66 219.53C790.5 217.63 793.11 215.1 795.49 211.94C797.56 209.23 798.6 206.84 798.6 204.77C798.6 203.16 798.14 202.18 797.22 201.83C796.3 201.48 794.92 201.72 793.07 202.56C788.61 204.58 783.7 208.62 778.32 214.67C772.1 221.57 768.99 227.82 768.99 233.42C768.99 237.42 771.02 241.48 775.1 245.63C779.63 250.1 781.9 254.6 781.9 259.13C781.9 265.89 778.9 272.55 772.91 279.11C769.22 283.17 765.04 286.26 760.35 288.38C752.98 291.73 747.37 291.62 743.53 288.07C740.84 285.53 739.5 281.68 739.5 276.54C739.5 270.55 741.04 264.82 744.11 259.36C746.11 255.77 748.18 253.48 750.33 252.5C752.25 251.63 753.21 251.96 753.21 253.5C753.21 254.12 752.86 255.19 752.17 256.74C750.4 260.84 749.52 265.12 749.52 269.58C749.52 273.34 750.86 275.92 753.55 277.31C755.93 278.53 758.66 278.45 761.73 277.05C764.73 275.69 767.07 273.63 768.76 270.86C770.14 268.54 770.83 266.08 770.83 263.47C770.83 260.24 768.99 256.9 765.3 253.42C760.23 248.66 757.7 243.39 757.7 237.63C757.7 229.95 761.89 221.25 770.26 211.54C778.4 202.16 787 195.41 796.07 191.3L796.08 191.27Z" fill="white"/>
<path d="M836.41 188.29C839.56 184.86 841.9 182.42 843.44 180.95C846.59 177.98 849.66 175.82 852.66 174.46C856.04 172.93 858.57 172.75 860.26 173.95C861.95 175.14 862.79 177.7 862.79 181.61C862.79 186.99 860.91 194.29 857.14 203.53C851.3 218.09 844.24 230.66 835.94 241.27C828.95 250.2 822.38 256.07 816.24 258.85C812.86 260.39 809.52 260.6 806.22 259.48C795.7 285.53 786.29 311.5 777.99 337.39C776.22 343.49 774.15 347.08 771.77 348.16C770.62 348.68 769.47 348.44 768.31 347.42C767.47 346.73 767.04 345.73 767.04 344.42C767.04 340.27 772.11 324.49 782.25 297.08C797.92 254.79 812.78 218.82 826.84 189.16C829.76 182.92 831.72 178.65 832.72 176.35C835.41 170.14 838.02 166.46 840.55 165.3C843.16 164.12 844.47 165.1 844.47 168.25C844.47 170.02 843.55 172.82 841.7 176.65C839.47 181.5 837.71 185.38 836.4 188.27L836.41 188.29ZM810.49 247.87C812.18 248.87 814.29 248.79 816.83 247.64C823.97 244.4 831.88 234.47 840.56 217.85C843.79 211.7 846.36 205.73 848.28 199.95C849.82 195.34 850.58 192.03 850.58 190.03C850.58 188.65 850.25 187.76 849.6 187.36C848.95 186.97 847.93 187.08 846.55 187.71C842.94 189.35 838.52 193.85 833.3 201.21C828.31 208.32 823.51 217.29 818.9 228.14C814.67 238.12 811.87 244.7 810.49 247.86V247.87Z" fill="white"/>
<path d="M909.91 141.78C916.21 138.92 919.36 141.33 919.36 149.01C919.36 159.23 914.64 174.31 905.19 194.27C894.9 215.92 884.95 228.92 875.35 233.28C870.9 235.3 867.63 234.71 865.56 231.5C864.49 229.92 863.95 227.66 863.95 224.74C863.95 214.91 867.33 202.7 874.09 188.11C880.39 174.58 887.8 162.92 896.32 153.13C901.31 147.41 905.84 143.62 909.91 141.77V141.78ZM897.93 190.77C896.01 190.11 895.05 189.35 895.05 188.51C895.05 187.9 896.28 185.65 898.74 181.77C905.65 170.87 909.11 163.05 909.11 158.28C909.11 157.67 908.92 157.14 908.53 156.7C907.91 155.83 906.95 155.69 905.65 156.28C903.19 157.4 899.58 161.42 894.82 168.34C888.67 177.28 883.99 185.74 880.76 193.73C877 202.89 875.11 209.93 875.11 214.84C875.11 216.15 875.46 217.14 876.15 217.83C877.15 218.76 878.41 218.88 879.95 218.18C883.64 216.51 887.59 211.95 891.82 204.5C893.66 201.36 895.16 198.3 896.31 195.32C897.46 192.34 898 190.83 897.92 190.79L897.93 190.77Z" fill="white"/>
<path d="M962.33 118.1C957.34 128.13 952.73 138.9 948.51 150.41C942.44 166.84 939.41 178.43 939.41 185.19C939.41 187.11 939.81 188.39 940.62 189.02C941.43 189.65 942.64 189.6 944.25 188.87C948.09 187.13 952.74 181.41 958.19 171.71C961.65 165.69 964.72 159.84 967.41 154.16C968.87 150.96 970.44 148.98 972.13 148.21C973.13 147.76 973.97 147.72 974.66 148.09C975.27 148.5 975.58 149.05 975.58 149.75C975.58 152.59 971.85 160.62 964.41 173.83C955.5 189.71 947.36 199.31 939.99 202.66C936.07 204.44 932.81 204.12 930.2 201.69C928.59 200.12 927.78 197.22 927.78 193C927.78 183.71 930.47 171.66 935.84 156.85C937.15 153.19 940.75 144.13 946.67 129.7C944.6 131.18 943.02 132.16 941.95 132.65C940.34 133.38 938.92 133.64 937.69 133.43C936 133.12 935.16 132.16 935.16 130.55C935.16 128.63 936.27 126.59 938.5 124.42C939.11 123.84 941.96 122.04 947.03 119.05C948.87 117.91 951.56 115.96 955.09 113.2C957.78 107.14 962.16 98.5899 968.22 87.5399C971.6 81.3999 973.94 77.3399 975.25 75.3599C977.09 72.5999 978.71 70.9099 980.09 70.2799C981.09 69.8299 982.09 69.9099 983.09 70.5299C984.01 71.1099 984.47 71.8999 984.47 72.8999C984.47 74.8999 982.32 79.8299 978.02 87.6999C975.18 92.8299 973.07 96.8999 971.68 99.9099C980.21 93.7399 986.31 89.8099 990 88.1399C994.22 86.2199 996.34 87.0299 996.34 90.5599C996.34 92.3299 995.61 93.9599 994.15 95.4699C993.38 96.2799 991.39 97.5699 988.16 99.3399C986.85 99.8599 981.06 103.95 970.76 111.62C967.92 113.76 965.11 115.91 962.35 118.09L962.33 118.1Z" fill="white"/>
<path d="M989.86 171.38C991.55 170.61 992.97 170.74 994.12 171.75C994.89 172.4 995.27 173.49 995.27 175.03C995.27 178.64 994.27 182.9 992.27 187.8C990.2 192.96 987.47 196.32 984.09 197.85C980.56 199.45 978.79 198.26 978.79 194.27C978.79 190.28 980.02 185.65 982.48 180.38C984.71 175.61 987.16 172.61 989.85 171.39L989.86 171.38ZM1064.75 0.5099C1066.44 -0.2601 1067.75 -0.1601 1068.67 0.8099C1069.44 1.6099 1069.82 2.7499 1069.82 4.1999C1069.82 7.3499 1067.52 14.3099 1062.91 25.0799C1044.02 69.0699 1026.97 106.38 1011.76 137.02C1009.3 142.05 1007.77 145.36 1007.15 146.95C1005.15 151.62 1003.08 154.44 1000.93 155.42C999.39 156.12 998.05 155.85 996.9 154.6C995.9 153.6 995.4 152.25 995.4 150.56C995.4 148.41 996.51 144.91 998.74 140.06C999.35 138.71 1002.04 133.3 1006.8 123.84C1012.87 110.87 1018.9 98.0299 1024.89 85.3299C1026.89 80.9699 1032.88 67.3399 1042.86 44.4499C1046.39 36.3899 1049.2 30.0499 1051.27 25.4199C1053.73 19.9299 1056.07 14.3299 1058.3 8.6299C1059.99 4.4099 1062.14 1.6999 1064.75 0.5199V0.5099Z" fill="white"/>
</g>
<defs>
<clipPath id="clip0_3307_25967">
<rect width="1069.82" height="645.47" fill="white"/>
</clipPath>
</defs>
</svg>
