<svg width="39" height="35" viewBox="0 0 39 35" fill="none" xmlns="http://www.w3.org/2000/svg">
<g clip-path="url(#clip0_3296_18591)">
<path d="M32.1253 21.5012C33.9866 20.5969 35.4525 19.2873 36.5117 17.5723C37.5737 15.8573 38.1075 13.8843 38.1075 11.6478C38.1075 9.41119 37.5737 7.26816 36.5117 5.49931C35.4525 3.73897 33.9499 2.37548 32.0038 1.42585C30.0578 0.476229 27.8293 0 25.3042 0H11.1086V20.1405C8.05251 17.5695 4.19148 16.033 0 16.033V22.1588C6.49906 22.1588 11.7949 27.9189 11.7949 35H17.8985C17.8985 29.77 20.7879 25.2685 24.9173 23.27L30.73 34.9915H39L32.1253 21.5012ZM27.3972 15.8885C26.5865 16.3023 26.0838 16.4186 25.1997 16.617L25.1913 16.6397C22.7453 17.3143 20.4999 18.5247 18.5764 20.1434V6.25051H24.7026C26.4651 6.25051 27.8688 6.7324 28.9139 7.70471C29.9589 8.6685 30.4843 9.98664 30.4843 11.6478C30.4843 13.3089 29.394 14.885 27.3972 15.8885Z" fill="#53FF98"/>
</g>
<defs>
<clipPath id="clip0_3296_18591">
<rect width="39" height="35" fill="white"/>
</clipPath>
</defs>
</svg>
