<svg width="589" height="527" viewBox="0 0 589 527" fill="none" xmlns="http://www.w3.org/2000/svg">
<path d="M483.379 323.518C511.299 309.954 533.287 290.309 549.175 264.584C565.105 238.859 573.112 209.265 573.112 175.717C573.112 142.168 565.105 110.022 549.175 83.4897C533.287 57.0845 510.748 36.6321 481.558 22.3878C452.367 8.14344 418.94 1 381.064 1H168.128V303.108C122.288 264.542 64.3722 241.496 1.5 241.496V333.382C98.9859 333.382 178.424 419.784 178.424 526H269.978C269.978 447.55 313.319 380.027 375.259 350.05L462.45 525.872H586.5L483.379 323.518ZM412.457 239.327C400.298 245.535 392.757 247.278 379.496 250.255L379.369 250.595C342.679 260.715 308.998 278.871 280.146 303.15V94.7576H372.04C398.476 94.7576 419.533 101.986 435.208 116.571C450.884 131.028 458.764 150.8 458.764 175.717C458.764 200.634 442.411 224.275 412.457 239.327Z" stroke="#53FF98" stroke-width="2"/>
</svg>
